<?xml version="1.0" encoding="UTF-8" standalone="no"?>
<!DOCTYPE svg PUBLIC "-//W3C//DTD SVG 1.1//EN"
 "http://www.w3.org/Graphics/SVG/1.1/DTD/svg11.dtd">
<!-- Generated by graphviz version 2.40.1 (20161225.0304)
 -->
<!-- Title: sub Pages: 1 -->
<svg width="602pt" height="488pt"
 viewBox="0.00 0.00 602.00 488.00" xmlns="http://www.w3.org/2000/svg" xmlns:xlink="http://www.w3.org/1999/xlink">
<g id="graph0" class="graph" transform="scale(1 1) rotate(0) translate(4 484)">
<title>sub</title>
<polygon fill="#ffffff" stroke="transparent" points="-4,4 -4,-484 598,-484 598,4 -4,4"/>
<!-- A -->
<g id="node1" class="node">
<title>A</title>
<polygon fill="none" stroke="#000000" points="288,-480.1003 0,-480.1003 0,-404.6997 288,-404.6997 288,-480.1003"/>
<text text-anchor="middle" x="144" y="-463.4" font-family="Helvetica,sans-Serif" font-size="14.00" fill="#000000">Records identified from:</text>
<text text-anchor="middle" x="144" y="-446.6" font-family="Helvetica,sans-Serif" font-size="14.00" fill="#000000"> &#160;&#160;&#160;&#160;&#160;&#160;&#160;&#160;&#160;&#160;&#160;&#160;&#160;&#160;&#160;Web of Science (n = 142)</text>
<text text-anchor="middle" x="144" y="-429.8" font-family="Helvetica,sans-Serif" font-size="14.00" fill="#000000"> &#160;&#160;&#160;&#160;&#160;&#160;&#160;&#160;&#160;&#160;&#160;&#160;&#160;&#160;&#160;Scopus (n = 227)</text>
<text text-anchor="middle" x="144" y="-413" font-family="Helvetica,sans-Serif" font-size="14.00" fill="#000000"> &#160;&#160;&#160;&#160;&#160;&#160;&#160;&#160;&#160;&#160;&#160;&#160;&#160;&#160;&#160;OpenALEX (n = 278)</text>
</g>
<!-- B -->
<g id="node2" class="node">
<title>B</title>
<polygon fill="none" stroke="#000000" points="594,-463.0019 306,-463.0019 306,-421.7981 594,-421.7981 594,-463.0019"/>
<text text-anchor="middle" x="450" y="-446.6" font-family="Helvetica,sans-Serif" font-size="14.00" fill="#000000">Records removed before screening: </text>
<text text-anchor="middle" x="450" y="-429.8" font-family="Helvetica,sans-Serif" font-size="14.00" fill="#000000"> &#160;&#160;&#160;&#160;&#160;&#160;&#160;&#160;&#160;&#160;&#160;&#160;&#160;&#160;&#160;Duplicates entries/errors (n = 94)</text>
</g>
<!-- A&#45;&gt;B -->
<g id="edge1" class="edge">
<title>A&#45;&gt;B</title>
<path fill="none" stroke="#000000" d="M288.0352,-442.4C290.5263,-442.4 293.0175,-442.4 295.5086,-442.4"/>
<polygon fill="#000000" stroke="#000000" points="295.7501,-445.9001 305.7501,-442.4 295.75,-438.9001 295.7501,-445.9001"/>
</g>
<!-- C -->
<g id="node3" class="node">
<title>C</title>
<polygon fill="none" stroke="#000000" points="288,-368.8 0,-368.8 0,-332.8 288,-332.8 288,-368.8"/>
<text text-anchor="middle" x="144" y="-346.6" font-family="Helvetica,sans-Serif" font-size="14.00" fill="#000000">Records after duplicates removed (n = 553)</text>
</g>
<!-- A&#45;&gt;C -->
<g id="edge2" class="edge">
<title>A&#45;&gt;C</title>
<path fill="none" stroke="#000000" d="M144,-404.6139C144,-396.2114 144,-387.4374 144,-379.4712"/>
<polygon fill="#000000" stroke="#000000" points="147.5001,-379.2195 144,-369.2196 140.5001,-379.2196 147.5001,-379.2195"/>
</g>
<!-- D -->
<g id="node4" class="node">
<title>D</title>
<polygon fill="none" stroke="#000000" points="288,-277.2 0,-277.2 0,-241.2 288,-241.2 288,-277.2"/>
<text text-anchor="middle" x="144" y="-255" font-family="Helvetica,sans-Serif" font-size="14.00" fill="#000000">Records screened (n = 553)</text>
</g>
<!-- C&#45;&gt;D -->
<g id="edge3" class="edge">
<title>C&#45;&gt;D</title>
<path fill="none" stroke="#000000" d="M144,-332.7028C144,-319.7805 144,-302.1454 144,-287.3881"/>
<polygon fill="#000000" stroke="#000000" points="147.5001,-287.2596 144,-277.2596 140.5001,-287.2597 147.5001,-287.2596"/>
</g>
<!-- E -->
<g id="node5" class="node">
<title>E</title>
<polygon fill="none" stroke="#000000" points="594,-296.9003 306,-296.9003 306,-221.4997 594,-221.4997 594,-296.9003"/>
<text text-anchor="middle" x="450" y="-280.2" font-family="Helvetica,sans-Serif" font-size="14.00" fill="#000000">Records removed: </text>
<text text-anchor="middle" x="450" y="-263.4" font-family="Helvetica,sans-Serif" font-size="14.00" fill="#000000"> &#160;&#160;&#160;&#160;&#160;&#160;&#160;&#160;&#160;&#160;&#160;&#160;&#160;&#160;&#160;Irrelevant titles/themes (n = 338)</text>
<text text-anchor="middle" x="450" y="-246.6" font-family="Helvetica,sans-Serif" font-size="14.00" fill="#000000"> &#160;&#160;&#160;&#160;&#160;&#160;&#160;&#160;&#160;&#160;&#160;&#160;&#160;&#160;&#160;Abstract screening (n = 95)</text>
<text text-anchor="middle" x="450" y="-229.8" font-family="Helvetica,sans-Serif" font-size="14.00" fill="#000000"> &#160;&#160;&#160;&#160;&#160;&#160;&#160;&#160;&#160;&#160;&#160;&#160;&#160;&#160;&#160;Discussion (n = 24)</text>
</g>
<!-- D&#45;&gt;E -->
<g id="edge4" class="edge">
<title>D&#45;&gt;E</title>
<path fill="none" stroke="#000000" d="M288.0352,-259.2C290.5263,-259.2 293.0175,-259.2 295.5086,-259.2"/>
<polygon fill="#000000" stroke="#000000" points="295.7501,-262.7001 305.7501,-259.2 295.75,-255.7001 295.7501,-262.7001"/>
</g>
<!-- F -->
<g id="node6" class="node">
<title>F</title>
<polygon fill="none" stroke="#000000" points="288,-182.8 0,-182.8 0,-146.8 288,-146.8 288,-182.8"/>
<text text-anchor="middle" x="144" y="-160.6" font-family="Helvetica,sans-Serif" font-size="14.00" fill="#000000">Full text articles assessed (n = 96)</text>
</g>
<!-- D&#45;&gt;F -->
<g id="edge5" class="edge">
<title>D&#45;&gt;F</title>
<path fill="none" stroke="#000000" d="M144,-240.9987C144,-227.4169 144,-208.6048 144,-193.0711"/>
<polygon fill="#000000" stroke="#000000" points="147.5001,-192.9454 144,-182.9454 140.5001,-192.9454 147.5001,-192.9454"/>
</g>
<!-- G -->
<g id="node7" class="node">
<title>G</title>
<polygon fill="none" stroke="#000000" points="288,-108 0,-108 0,-72 288,-72 288,-108"/>
<text text-anchor="middle" x="144" y="-85.8" font-family="Helvetica,sans-Serif" font-size="14.00" fill="#000000">Studies included in final review (n = 46)</text>
</g>
<!-- F&#45;&gt;G -->
<g id="edge7" class="edge">
<title>F&#45;&gt;G</title>
<path fill="none" stroke="#000000" d="M144,-146.693C144,-138.2112 144,-127.9062 144,-118.4204"/>
<polygon fill="#000000" stroke="#000000" points="147.5001,-118.1995 144,-108.1995 140.5001,-118.1995 147.5001,-118.1995"/>
</g>
<!-- H -->
<g id="node8" class="node">
<title>H</title>
<polygon fill="none" stroke="#000000" points="594,-185.4019 306,-185.4019 306,-144.1981 594,-144.1981 594,-185.4019"/>
<text text-anchor="middle" x="450" y="-169" font-family="Helvetica,sans-Serif" font-size="14.00" fill="#000000">Full text articles excluded</text>
<text text-anchor="middle" x="450" y="-152.2" font-family="Helvetica,sans-Serif" font-size="14.00" fill="#000000"> &#160;&#160;&#160;&#160;&#160;&#160;&#160;&#160;&#160;&#160;&#160;&#160;(n = 50)</text>
</g>
<!-- F&#45;&gt;H -->
<g id="edge6" class="edge">
<title>F&#45;&gt;H</title>
<path fill="none" stroke="#000000" d="M288.0352,-164.8C290.5263,-164.8 293.0175,-164.8 295.5086,-164.8"/>
<polygon fill="#000000" stroke="#000000" points="295.7501,-168.3001 305.7501,-164.8 295.75,-161.3001 295.7501,-168.3001"/>
</g>
<!-- I -->
<g id="node9" class="node">
<title>I</title>
<polygon fill="none" stroke="#000000" points="594,-108 306,-108 306,-72 594,-72 594,-108"/>
<text text-anchor="middle" x="450" y="-85.8" font-family="Helvetica,sans-Serif" font-size="14.00" fill="#000000">Studies excluded in final review (n = 12)</text>
</g>
<!-- G&#45;&gt;I -->
<g id="edge8" class="edge">
<title>G&#45;&gt;I</title>
<path fill="none" stroke="#000000" d="M288.0352,-90C290.5263,-90 293.0175,-90 295.5086,-90"/>
<polygon fill="#000000" stroke="#000000" points="295.7501,-93.5001 305.7501,-90 295.75,-86.5001 295.7501,-93.5001"/>
</g>
<!-- J -->
<g id="node10" class="node">
<title>J</title>
<polygon fill="none" stroke="#000000" points="288,-36 0,-36 0,0 288,0 288,-36"/>
<text text-anchor="middle" x="144" y="-13.8" font-family="Helvetica,sans-Serif" font-size="14.00" fill="#000000">Final selection (n = 34)</text>
</g>
<!-- G&#45;&gt;J -->
<g id="edge9" class="edge">
<title>G&#45;&gt;J</title>
<path fill="none" stroke="#000000" d="M144,-71.8314C144,-64.131 144,-54.9743 144,-46.4166"/>
<polygon fill="#000000" stroke="#000000" points="147.5001,-46.4132 144,-36.4133 140.5001,-46.4133 147.5001,-46.4132"/>
</g>
</g>
</svg>

